<?xml version="1.0" standalone="no"?>
<!DOCTYPE svg PUBLIC "-//W3C//DTD SVG 20010904//EN"
 "http://www.w3.org/TR/2001/REC-SVG-20010904/DTD/svg10.dtd">
<svg version="1.0" xmlns="http://www.w3.org/2000/svg"
 width="4518.000000pt" height="1702.000000pt" viewBox="0 0 4518.000000 1702.000000"
 preserveAspectRatio="xMidYMid meet">

<g transform="translate(0.000000,1702.000000) scale(0.100000,-0.100000)"
fill="#000000" stroke="none">
<path d="M6059 14193 c-13 -3 -17 -24 -22 -101 -4 -53 -7 -128 -7 -165 0 -61
2 -68 23 -76 33 -13 11048 -4 11061 9 6 6 10 75 10 165 1 128 -2 157 -14 165
-15 9 -11016 13 -11051 3z"/>
<path d="M7225 12771 l-650 -6 1 -770 c0 -634 3 -801 17 -945 9 -96 19 -229
22 -295 3 -66 15 -196 25 -290 11 -93 24 -208 29 -255 19 -178 42 -348 56
-415 8 -38 19 -111 25 -162 6 -51 14 -103 20 -117 5 -14 14 -65 20 -113 6 -48
16 -103 22 -121 5 -18 16 -67 23 -110 13 -75 29 -151 61 -282 9 -36 22 -94 30
-130 15 -73 39 -170 62 -245 8 -27 20 -75 28 -105 7 -30 25 -95 39 -145 15
-49 35 -119 45 -155 20 -70 34 -111 87 -265 19 -55 40 -120 48 -145 23 -72 55
-162 71 -197 7 -17 14 -37 14 -45 0 -7 12 -35 25 -63 14 -27 25 -56 25 -62 0
-7 9 -32 19 -55 10 -24 29 -68 42 -98 12 -30 33 -78 46 -107 13 -28 23 -55 23
-58 0 -3 12 -32 26 -63 14 -31 35 -77 46 -102 29 -63 99 -213 138 -290 17 -36
38 -78 46 -95 8 -16 19 -37 24 -45 5 -8 27 -51 50 -95 22 -44 54 -102 70 -130
16 -27 36 -63 45 -80 8 -16 26 -48 40 -70 13 -22 31 -53 40 -70 9 -16 29 -50
45 -75 17 -25 36 -56 42 -70 7 -14 22 -38 32 -55 95 -148 192 -296 264 -399
23 -33 50 -72 59 -86 27 -38 50 -52 158 -94 411 -158 1093 -296 1905 -385 235
-26 682 -54 707 -44 10 4 13 48 13 174 0 142 -2 169 -15 169 -8 0 -42 -18 -75
-39 -179 -116 -533 -178 -786 -137 -244 39 -480 157 -626 313 -24 25 -50 53
-58 62 -9 9 -29 36 -44 61 -16 25 -36 56 -45 70 -16 26 -60 114 -92 185 -22
51 -47 125 -63 195 -8 30 -21 81 -30 114 -32 118 -29 472 4 587 6 19 15 95 21
169 6 74 17 161 24 195 22 92 19 196 -7 258 -43 100 -130 207 -168 207 -11 0
-77 -27 -147 -59 -168 -77 -217 -88 -331 -72 -103 16 -276 58 -315 78 -74 37
-82 75 -40 179 32 77 118 173 197 219 114 67 275 72 555 19 375 -71 588 -287
602 -609 3 -81 -23 -403 -41 -495 -35 -179 -53 -319 -47 -372 6 -66 35 -199
46 -213 5 -5 14 -28 21 -50 14 -45 85 -183 121 -235 137 -200 339 -322 569
-345 36 -4 76 -9 89 -11 39 -6 160 14 226 38 50 17 134 57 214 103 100 57 170
126 211 209 29 57 30 64 30 197 l0 139 -397 2 -398 3 -5 1090 -5 1090 -1165 5
-1165 5 0 465 0 465 1655 0 1655 0 2 -520 c2 -286 -1 -980 -5 -1543 -4 -562
-5 -1027 -4 -1032 4 -11 93 -13 129 -4 l23 6 2 1552 3 1551 770 1 c941 1 2587
-15 2598 -25 9 -9 11 -947 2 -961 -4 -6 -456 -10 -1206 -10 l-1199 0 0 -1065
c0 -1004 -1 -1065 -17 -1073 -10 -4 -199 -7 -420 -7 l-403 2 0 -125 c0 -116 2
-129 27 -181 53 -108 77 -135 178 -203 87 -57 190 -109 275 -139 54 -20 84
-23 180 -23 288 2 521 130 669 367 14 23 32 51 39 62 7 11 17 31 23 45 6 14
19 43 29 65 59 132 80 219 80 335 0 86 -18 233 -36 295 -8 27 -19 114 -25 193
-5 79 -14 166 -19 194 -30 159 8 337 104 484 11 16 48 57 82 90 143 139 435
229 744 228 106 0 134 -4 185 -23 150 -58 284 -214 288 -337 2 -51 -1 -58 -27
-79 -56 -44 -306 -104 -437 -105 -97 0 -125 8 -266 75 -131 63 -142 64 -181
25 -55 -55 -100 -132 -118 -204 -16 -65 -16 -76 -1 -190 10 -67 17 -137 17
-157 0 -20 7 -75 15 -122 8 -47 23 -169 34 -272 19 -183 19 -189 0 -328 -10
-78 -23 -152 -29 -164 -5 -13 -16 -51 -24 -85 -8 -35 -22 -76 -30 -93 -9 -16
-16 -36 -16 -44 0 -30 -106 -231 -155 -296 -9 -11 -28 -36 -43 -56 -125 -163
-383 -311 -637 -364 -110 -24 -360 -24 -475 -1 -176 36 -326 92 -406 152 -17
13 -34 20 -38 17 -9 -9 -7 -321 2 -326 12 -7 496 31 682 53 148 18 316 40 375
50 33 5 107 17 165 25 58 9 128 20 155 26 28 5 99 18 160 29 380 71 697 155
969 260 86 32 215 78 288 101 130 41 167 61 191 105 7 12 48 76 91 141 43 65
89 134 101 153 12 19 30 49 41 65 39 62 38 60 115 190 16 28 36 64 45 80 8 17
26 48 40 70 13 22 33 58 44 80 11 22 43 81 70 130 27 50 54 101 59 115 6 14
16 32 21 40 6 8 15 26 22 40 34 74 102 217 109 230 5 8 12 22 15 30 3 8 16 38
29 65 13 28 35 79 50 115 14 36 35 82 46 102 10 20 19 43 19 50 0 7 12 36 25
63 14 28 25 56 25 63 0 7 9 30 19 50 11 20 31 71 46 112 15 41 35 94 46 118
10 23 19 50 19 59 0 9 9 34 19 57 19 40 34 82 70 201 11 33 24 74 30 90 16 46
40 123 62 198 10 37 28 97 39 135 10 37 26 94 35 127 8 33 22 80 30 105 8 25
22 77 30 115 29 128 74 320 105 455 12 47 20 94 20 105 0 12 7 48 16 80 9 33
22 101 29 150 8 50 21 122 29 160 9 39 16 86 16 105 0 19 9 76 19 125 11 50
22 131 26 180 4 50 13 117 21 150 7 33 16 107 19 165 4 58 13 147 21 199 8 52
21 202 30 335 8 133 19 288 24 346 5 58 13 439 16 848 6 631 5 742 -7 743 -95
7 -8548 16 -9264 10z m2067 -702 c40 -10 68 -32 68 -54 0 -22 -23 -24 -86 -8
-48 13 -71 14 -123 5 -68 -11 -186 -65 -195 -88 -3 -8 -12 -14 -20 -14 -9 0
-20 -9 -26 -20 -6 -11 -16 -20 -23 -20 -7 0 -18 -9 -25 -20 -7 -11 -18 -20
-26 -20 -7 0 -16 -9 -19 -20 -3 -11 -10 -20 -16 -20 -16 0 -14 21 4 39 8 9 29
32 47 52 40 43 178 153 220 175 63 33 130 37 220 13z m3246 -886 l2 -833 1188
-1 c653 0 1195 -4 1205 -7 16 -7 17 -38 18 -487 l0 -480 -208 -7 c-114 -3
-566 -9 -1003 -12 -437 -3 -1096 -7 -1465 -10 -368 -3 -678 -3 -687 0 -17 5
-18 73 -18 1334 0 1053 3 1329 13 1333 6 3 224 5 482 4 l470 -2 3 -832z
m-1098 815 c2 -337 -1 -2643 -4 -2645 -5 -5 -3276 17 -3311 22 l-30 5 0 472
c0 304 4 476 10 480 6 4 251 8 545 8 368 0 530 4 518 11 -57 33 44 38 107 5
24 -13 64 -16 193 -16 111 0 162 3 162 11 0 6 -21 32 -47 59 -45 44 -73 76
-115 132 -9 13 -28 37 -41 53 -13 17 -27 40 -31 52 -4 11 -13 24 -21 27 -16 6
-21 56 -5 56 5 0 15 -10 21 -22 6 -13 18 -30 25 -38 7 -8 26 -30 41 -48 98
-118 183 -201 247 -243 l60 -39 119 0 118 0 -18 23 c-20 25 -86 96 -120 132
-13 12 -23 27 -23 33 0 6 -9 16 -20 22 -11 6 -20 17 -20 25 0 9 -9 23 -20 32
-22 19 -27 43 -9 43 6 0 13 -9 16 -20 3 -11 11 -20 19 -20 7 0 18 -8 23 -19
23 -41 161 -171 200 -187 27 -10 41 -23 43 -37 3 -22 6 -22 212 -25 161 -2
211 1 218 10 4 7 8 383 8 836 l0 822 465 0 c365 0 465 -3 465 -12z m-1899 -37
c95 -27 159 -57 159 -75 0 -20 3 -20 -94 8 -44 14 -101 27 -126 31 -69 10 -80
15 -80 36 0 25 52 26 141 0z m-270 -21 c25 -14 24 -46 -2 -60 -30 -16 -49 -5
-49 28 0 43 14 51 51 32z m287 -92 c-4 -12 -187 -43 -197 -33 -2 3 0 10 5 15
25 25 199 41 192 18z m-788 -82 c0 -3 -4 -8 -10 -11 -5 -3 -10 -1 -10 4 0 6 5
11 10 11 6 0 10 -2 10 -4z m558 -66 c23 -11 58 -32 79 -46 71 -48 195 -175
216 -221 6 -13 13 -23 17 -23 4 0 13 -15 21 -32 7 -18 18 -36 25 -41 7 -4 16
-22 19 -39 4 -18 16 -44 27 -59 20 -26 22 -74 3 -74 -5 0 -16 18 -23 40 -7 22
-20 43 -28 48 -7 4 -14 14 -14 22 0 7 -11 27 -25 43 -14 17 -25 34 -25 39 0
10 -11 24 -95 119 -58 65 -157 133 -235 161 -58 22 -77 40 -67 67 9 22 54 20
105 -4z m-550 -72 c2 -12 -18 -27 -80 -57 -51 -24 -104 -60 -138 -92 l-55 -52
0 -93 c1 -85 3 -95 25 -118 14 -14 36 -37 50 -51 59 -62 152 -91 354 -110 427
-40 656 -117 961 -321 100 -66 130 -90 218 -169 27 -25 35 -45 17 -45 -5 0
-13 6 -17 13 -7 11 -52 44 -78 57 -5 3 -44 27 -85 54 -120 79 -273 151 -440
206 -177 58 -280 81 -470 104 -306 37 -366 55 -445 136 -22 23 -48 49 -57 58
-10 9 -18 24 -18 33 0 9 -9 28 -20 42 -17 21 -20 40 -20 120 0 72 4 98 15 107
8 7 15 18 15 25 0 35 115 142 175 163 43 16 89 11 93 -10z m1008 -513 c7 -30
-2 -59 -16 -50 -13 8 -13 75 0 75 5 0 12 -11 16 -25z m-701 -270 c53 -36 108
-67 123 -71 41 -8 57 -19 57 -40 0 -15 -7 -19 -34 -17 -44 2 -71 16 -156 83
-94 74 -115 92 -115 102 0 20 36 3 125 -57z m258 -69 c6 -15 -1 -26 -15 -26
-4 0 -8 9 -8 20 0 23 15 27 23 6z m-133 -150 c0 -27 -15 -42 -25 -26 -8 13 3
50 16 50 5 0 9 -11 9 -24z m-40 -73 c0 -23 -17 -49 -26 -41 -9 10 4 58 16 58
6 0 10 -8 10 -17z m-140 -92 c0 -9 -101 -24 -109 -15 -3 3 1 9 9 14 19 12 100
13 100 1z m90 -21 c0 -11 -8 -23 -17 -26 -10 -3 -35 -15 -56 -26 -35 -18 -49
-19 -149 -13 -90 6 -108 10 -92 19 10 6 62 12 114 13 52 1 109 4 125 6 17 2
35 5 41 6 7 0 14 10 17 21 7 26 17 26 17 0z"/>
<path d="M23042 11642 c-20 -21 -56 -63 -79 -93 -23 -30 -59 -72 -79 -94 l-37
-39 27 -9 c35 -12 108 31 203 119 96 89 94 86 130 115 18 15 30 29 26 33 -3 3
-40 6 -80 6 -72 0 -75 -1 -111 -38z"/>
<path d="M20355 11343 c-153 -21 -264 -62 -360 -133 -56 -42 -165 -159 -180
-194 -5 -13 -15 -29 -22 -37 -6 -8 -15 -28 -18 -44 -4 -17 -15 -43 -25 -60
-10 -16 -20 -50 -24 -75 -4 -24 -11 -49 -15 -55 -41 -52 -46 -446 -6 -509 7
-12 16 -41 20 -66 4 -25 15 -61 25 -80 10 -19 21 -49 24 -67 4 -17 14 -37 22
-44 8 -6 14 -17 14 -25 0 -7 39 -53 88 -103 72 -74 102 -97 178 -134 113 -57
198 -77 318 -77 154 0 309 51 416 138 65 52 134 125 148 156 6 14 16 26 21 26
4 0 11 14 15 31 3 17 15 43 26 59 11 15 20 33 20 40 0 6 9 23 19 37 11 13 23
45 27 71 3 26 14 72 23 102 20 67 24 388 5 411 -7 8 -17 40 -24 72 -12 61 -42
134 -73 177 -9 13 -17 32 -17 42 0 23 -82 122 -154 187 -98 89 -233 140 -401
154 -33 3 -73 3 -90 0z m194 -123 c118 -33 246 -114 286 -181 6 -10 24 -37 42
-62 17 -25 34 -56 38 -69 4 -12 13 -33 21 -45 8 -12 26 -53 41 -90 26 -66 26
-75 27 -273 1 -222 -5 -254 -70 -384 -13 -28 -24 -55 -24 -61 0 -6 -9 -18 -20
-28 -11 -9 -20 -23 -20 -30 0 -8 -9 -22 -20 -32 -11 -10 -20 -22 -20 -27 0
-11 -55 -68 -65 -68 -3 0 -21 -11 -38 -24 -160 -120 -393 -138 -581 -46 -108
54 -226 172 -251 252 -4 12 -16 34 -26 47 -11 13 -19 32 -19 43 0 10 -10 38
-21 61 -12 23 -26 67 -31 97 -15 87 -21 280 -10 304 6 12 13 46 15 78 3 31 12
67 20 80 8 12 18 39 22 58 4 19 18 54 31 77 13 23 24 48 24 57 0 8 6 19 13 23
7 4 18 20 24 35 11 24 123 121 191 166 13 9 58 26 101 38 100 30 220 31 320 4z"/>
<path d="M26235 11339 c-85 -12 -182 -44 -240 -79 -27 -16 -60 -34 -71 -39
-37 -17 -129 -113 -174 -183 -24 -38 -47 -68 -51 -68 -4 0 -11 -15 -15 -32 -3
-18 -15 -44 -25 -57 -11 -13 -19 -31 -19 -41 0 -9 -9 -50 -20 -91 -40 -146
-37 -452 6 -554 8 -19 14 -47 14 -63 0 -16 9 -37 20 -47 11 -10 20 -29 20 -43
0 -13 10 -37 23 -53 53 -68 65 -85 71 -104 6 -17 47 -55 119 -110 119 -93 250
-135 417 -135 190 0 372 76 498 208 24 25 50 59 59 76 9 17 22 35 29 39 8 4
14 14 14 21 0 7 9 24 19 38 11 13 23 38 27 53 4 16 15 43 24 60 10 16 21 63
24 104 4 41 12 81 19 89 17 21 17 333 0 353 -6 8 -16 52 -22 97 -6 45 -17 92
-25 104 -7 13 -19 40 -26 61 -6 20 -15 37 -20 37 -5 0 -12 9 -15 20 -3 11 -12
26 -18 32 -7 7 -28 36 -46 64 -41 60 -131 134 -214 175 -112 57 -282 86 -402
68z m226 -115 c93 -28 184 -82 249 -150 63 -65 119 -140 120 -159 0 -6 9 -27
20 -48 11 -21 23 -58 27 -82 3 -25 9 -45 13 -45 14 0 30 -131 30 -246 0 -123
-13 -233 -28 -243 -5 -3 -12 -26 -15 -51 -3 -25 -15 -64 -27 -87 -11 -23 -20
-47 -20 -54 0 -15 -72 -103 -130 -159 -69 -66 -119 -98 -201 -128 -63 -22 -90
-26 -184 -27 -116 0 -167 12 -270 62 -50 25 -235 205 -235 229 0 6 -8 22 -19
35 -10 13 -22 42 -25 65 -4 22 -14 53 -22 68 -46 91 -46 465 1 571 7 17 17 48
20 70 4 22 13 47 20 55 7 8 15 24 19 35 3 11 23 39 45 63 21 23 41 48 44 56 3
7 30 34 59 59 59 50 142 92 223 113 73 18 221 17 286 -2z"/>
<path d="M19010 11333 c-131 -22 -275 -81 -380 -156 -44 -31 -140 -136 -140
-154 0 -4 -12 -19 -25 -32 -14 -13 -25 -29 -25 -36 0 -7 -6 -18 -14 -24 -7 -6
-19 -32 -26 -56 -7 -25 -16 -45 -20 -45 -7 0 -22 -69 -52 -230 -12 -64 -4
-285 10 -303 5 -7 13 -41 17 -77 4 -36 15 -81 25 -100 9 -20 21 -50 25 -68 3
-18 11 -32 16 -32 6 0 15 -14 21 -30 5 -17 19 -35 29 -41 10 -5 19 -16 19 -23
0 -19 97 -116 153 -153 178 -121 405 -159 674 -114 61 10 136 30 167 44 l56
26 -21 40 c-24 46 -30 48 -85 25 -61 -26 -180 -43 -295 -44 -231 0 -370 52
-515 195 -83 83 -128 156 -145 240 -4 22 -15 65 -24 95 -12 39 -17 95 -18 195
0 121 4 155 28 255 16 63 37 126 47 139 10 13 18 32 18 42 0 20 162 196 195
211 11 5 36 18 55 28 180 98 407 115 634 49 57 -17 71 -18 81 -7 20 21 28 73
13 85 -21 16 -107 41 -185 52 -69 11 -261 13 -313 4z"/>
<path d="M24292 11329 c-208 -22 -369 -96 -502 -229 -80 -80 -103 -109 -131
-170 -17 -37 -60 -130 -75 -165 -47 -108 -43 -476 6 -582 11 -24 20 -48 20
-55 0 -7 9 -26 20 -43 11 -16 20 -40 20 -51 0 -12 7 -27 16 -35 8 -7 24 -29
34 -48 17 -35 107 -125 166 -167 97 -70 240 -119 369 -128 48 -4 92 -9 96 -12
12 -7 279 24 344 40 33 9 81 24 108 33 l47 17 2 350 c1 193 2 360 3 371 0 11
-4 23 -10 27 -12 9 -437 11 -459 2 -11 -4 -16 -19 -16 -44 0 -25 5 -40 16 -44
9 -3 86 -6 173 -6 109 0 161 -4 169 -12 9 -9 12 -87 12 -291 l0 -278 -36 -15
c-51 -22 -125 -34 -245 -41 -271 -15 -495 71 -624 242 -70 92 -110 175 -126
260 -5 28 -15 61 -22 74 -16 32 -17 302 -1 322 7 8 15 34 18 59 6 39 40 125
67 170 5 8 18 32 30 53 19 37 135 157 150 157 4 0 14 6 21 13 23 21 111 64
176 87 35 11 116 28 180 36 125 16 153 14 329 -27 107 -25 108 -25 127 15 21
44 21 43 -13 61 -82 42 -313 69 -459 54z"/>
<path d="M21420 11300 c-17 -32 -9 -1605 8 -1622 15 -15 239 -17 407 -4 122
10 145 10 215 2 174 -21 197 -17 206 31 4 20 2 39 -4 45 -8 8 -124 12 -355 13
-189 1 -349 5 -355 9 -9 5 -12 195 -12 757 0 498 -3 757 -10 770 -15 27 -85
27 -100 -1z"/>
<path d="M22523 11308 c-12 -19 -16 -1610 -4 -1628 9 -13 66 -15 388 -18 208
-2 392 0 409 3 28 5 32 10 37 43 2 20 0 42 -5 47 -5 6 -147 12 -366 15 l-357
5 -3 349 c-2 273 1 351 10 358 7 4 148 8 313 8 329 1 335 2 335 59 0 17 -1 32
-2 33 -2 1 -149 4 -328 8 l-325 5 -3 304 c-1 207 1 307 8 311 6 4 147 5 314 2
167 -3 320 -2 339 2 32 6 37 11 43 41 12 67 25 65 -407 65 -299 0 -390 -3
-396 -12z"/>
<path d="M25186 11288 c-3 -13 -6 -380 -6 -815 l0 -793 26 -6 c14 -4 37 -1 51
5 l26 12 -7 352 c-4 194 -7 370 -7 392 1 22 4 222 7 444 7 385 6 405 -11 418
-30 21 -72 17 -79 -9z"/>
<path d="M22512 9408 c-7 -7 -12 -23 -13 -37 -1 -48 -33 -114 -64 -132 -52
-30 -105 -24 -192 22 -210 112 -242 126 -318 139 -84 14 -144 6 -215 -31 -48
-24 -130 -112 -130 -138 0 -7 -9 -29 -20 -51 -11 -21 -24 -71 -30 -112 -7 -40
-16 -81 -21 -90 -16 -32 -11 -96 11 -118 17 -17 33 -20 114 -20 110 0 156 13
157 43 1 50 9 80 23 96 9 10 16 23 16 29 0 19 56 42 100 42 30 0 71 -16 164
-65 165 -86 194 -96 306 -102 81 -4 103 -2 151 16 55 21 129 77 129 97 0 6 9
19 20 29 11 10 20 29 20 41 0 13 10 42 21 64 17 33 22 62 25 153 2 69 -1 116
-8 124 -14 17 -229 18 -246 1z"/>
<path d="M19384 8696 c-211 -35 -371 -93 -507 -183 -39 -26 -78 -54 -87 -63
-8 -8 -27 -24 -40 -35 -37 -29 -130 -144 -130 -160 0 -7 -4 -15 -8 -17 -11 -4
-67 -112 -87 -168 -32 -89 -37 -127 -37 -270 -1 -171 5 -227 26 -268 9 -17 16
-39 16 -50 0 -10 11 -33 25 -52 14 -19 25 -42 25 -51 0 -10 5 -21 10 -24 6 -4
21 -23 35 -43 27 -43 116 -136 164 -172 18 -14 45 -35 60 -47 38 -30 177 -114
231 -140 78 -36 155 -68 330 -137 120 -47 251 -113 318 -161 38 -27 132 -119
132 -130 0 -7 10 -25 22 -41 20 -25 23 -41 25 -158 3 -125 2 -133 -24 -186
-29 -58 -101 -141 -143 -165 -66 -38 -135 -66 -192 -79 -243 -54 -607 -5 -873
119 -38 18 -82 35 -98 37 -23 5 -28 1 -33 -21 -10 -45 -37 -136 -44 -146 -4
-5 -8 -28 -9 -49 -1 -21 -7 -48 -13 -60 -20 -37 -47 -169 -38 -186 10 -19 116
-73 185 -95 216 -68 368 -94 595 -101 227 -8 360 4 524 45 183 47 285 96 426
204 71 55 170 155 170 173 0 6 9 19 20 29 11 10 20 26 20 36 0 10 4 20 10 24
17 10 71 130 93 206 28 98 32 374 6 454 -9 28 -20 64 -24 80 -6 29 -52 128
-78 170 -63 102 -205 238 -333 318 -79 49 -239 125 -384 182 -277 108 -425
190 -514 282 -46 47 -62 77 -88 163 -13 44 -4 146 16 185 9 17 16 37 16 45 0
23 88 112 145 146 66 41 139 64 244 78 184 25 420 -8 624 -88 115 -45 137 -46
137 -4 0 10 8 33 17 51 9 18 18 48 20 67 2 19 13 54 23 78 11 23 22 60 26 80
3 20 15 57 25 81 11 23 19 50 17 59 -7 36 -295 129 -476 153 -125 17 -426 20
-518 5z"/>
<path d="M24927 8695 c-246 -37 -463 -122 -649 -255 -89 -63 -267 -238 -312
-307 -14 -21 -38 -56 -54 -78 -15 -22 -35 -53 -43 -70 -9 -16 -28 -52 -43 -80
-30 -55 -86 -190 -86 -208 -1 -7 -9 -30 -20 -52 -11 -22 -19 -52 -20 -66 0
-15 -9 -55 -21 -90 -12 -35 -21 -71 -21 -79 0 -8 -7 -67 -14 -130 -16 -133
-18 -372 -4 -468 5 -37 12 -96 14 -132 5 -67 53 -258 74 -297 7 -12 12 -31 12
-43 0 -12 9 -33 20 -47 11 -14 20 -38 20 -52 0 -15 11 -42 25 -61 14 -19 25
-41 25 -50 0 -9 9 -25 20 -35 11 -10 20 -26 20 -36 0 -10 8 -24 19 -31 10 -7
21 -23 25 -36 4 -12 16 -27 27 -32 10 -6 19 -16 19 -22 0 -21 127 -160 220
-241 116 -101 324 -210 485 -255 161 -45 182 -47 455 -46 254 0 270 1 375 27
119 30 273 85 345 125 25 14 54 30 65 36 11 6 36 23 55 37 19 14 43 29 53 32
9 4 17 11 17 17 0 5 5 10 11 10 7 0 22 10 34 23 13 12 57 54 99 92 42 39 76
74 76 79 0 5 9 18 20 30 44 45 70 79 70 92 0 7 9 18 20 24 11 6 20 18 20 26 0
8 11 30 25 48 14 18 25 40 25 48 0 8 9 23 20 33 11 10 20 26 20 36 0 10 11 39
25 65 14 26 25 55 25 66 0 10 9 36 20 58 11 22 20 54 20 72 0 18 8 47 19 64
13 21 20 59 25 128 4 54 12 108 19 120 17 30 17 552 0 583 -7 12 -16 58 -19
103 -3 53 -12 94 -25 116 -10 19 -19 49 -19 67 0 18 -9 50 -20 72 -11 22 -20
47 -20 56 0 9 -11 37 -25 63 -14 26 -25 52 -25 59 0 7 -9 23 -20 37 -11 14
-20 32 -20 41 0 9 -7 23 -17 30 -9 8 -22 28 -30 44 -38 82 -243 313 -323 364
-14 8 -48 32 -75 53 -122 90 -388 192 -574 219 -117 17 -383 19 -484 4z m382
-481 c160 -33 308 -120 416 -246 28 -32 57 -66 67 -77 9 -10 19 -28 22 -39 4
-11 15 -27 26 -37 11 -10 20 -26 20 -35 0 -9 9 -25 20 -35 11 -10 20 -27 20
-37 0 -10 11 -40 25 -66 14 -26 25 -55 25 -65 0 -10 7 -34 17 -55 9 -20 20
-66 23 -102 4 -36 15 -91 24 -123 14 -47 16 -95 13 -270 -2 -136 -8 -226 -16
-252 -7 -22 -15 -65 -17 -95 -3 -30 -13 -76 -24 -102 -11 -26 -20 -55 -20 -66
0 -10 -11 -40 -25 -66 -14 -26 -25 -57 -25 -70 0 -13 -9 -31 -20 -41 -11 -10
-20 -23 -20 -28 0 -12 -85 -140 -115 -173 -76 -84 -89 -96 -173 -151 -126 -84
-343 -142 -481 -129 -168 16 -330 79 -450 175 -70 56 -160 150 -161 167 0 6
-9 19 -20 29 -11 10 -20 23 -20 30 0 7 -9 20 -20 30 -11 10 -20 26 -20 35 0 9
-11 31 -25 50 -14 19 -25 45 -25 59 0 14 -9 37 -20 51 -11 14 -20 38 -20 53 0
15 -9 56 -21 90 -25 75 -49 274 -49 417 0 137 24 339 49 415 11 33 21 74 21
90 0 17 9 41 20 55 11 14 20 37 20 51 0 15 9 37 19 51 11 13 23 38 27 53 4 16
16 38 26 49 10 11 18 25 18 32 0 7 6 19 13 26 6 7 25 31 42 53 33 44 130 142
165 165 12 8 32 22 44 31 36 27 151 78 202 90 27 7 60 15 74 20 45 14 251 10
329 -7z"/>
<path d="M39540 8698 c-396 -57 -718 -236 -950 -528 -60 -75 -70 -89 -70 -98
0 -6 -6 -15 -14 -19 -8 -4 -21 -24 -30 -43 -22 -45 -47 -88 -69 -120 -9 -13
-17 -31 -17 -40 0 -8 -12 -37 -25 -65 -14 -27 -25 -56 -25 -63 0 -7 -9 -30
-20 -52 -11 -22 -20 -52 -20 -67 0 -15 -7 -48 -16 -73 -43 -120 -81 -529 -62
-665 23 -172 49 -315 62 -347 9 -21 16 -54 16 -75 0 -22 9 -48 20 -63 11 -14
20 -38 20 -55 0 -16 12 -48 25 -70 14 -22 25 -47 25 -56 0 -9 9 -27 19 -41 11
-13 23 -36 26 -51 4 -14 14 -32 22 -38 8 -7 20 -27 28 -46 8 -18 19 -33 24
-33 6 0 11 -5 11 -11 0 -14 61 -90 151 -187 39 -43 144 -130 211 -174 147 -99
319 -168 518 -210 100 -20 542 -17 640 5 231 51 418 132 570 245 81 60 290
266 290 285 0 7 9 18 20 25 11 7 20 18 20 26 0 7 7 19 16 26 8 8 22 27 29 44
8 17 19 38 25 46 5 8 16 31 25 50 8 19 18 42 23 50 34 61 62 123 62 137 0 10
9 40 19 68 11 27 25 75 31 105 7 30 15 59 18 65 3 5 7 21 9 35 1 14 10 72 19
130 26 157 24 505 -4 660 -23 130 -60 280 -73 296 -5 6 -13 33 -19 62 -6 28
-18 56 -26 63 -8 6 -14 16 -14 22 0 5 -16 42 -36 81 -53 105 -70 135 -88 155
-9 10 -16 21 -16 25 0 14 -125 158 -186 216 -56 53 -177 150 -187 150 -3 0
-31 17 -63 39 -67 43 -199 98 -325 135 -171 49 -463 69 -639 44z m382 -489
c121 -30 257 -101 334 -172 53 -49 164 -184 164 -200 0 -8 9 -22 20 -32 11
-10 20 -25 20 -33 0 -7 9 -26 19 -41 11 -15 23 -40 27 -57 4 -16 13 -38 21
-50 18 -29 50 -148 76 -289 17 -96 22 -154 21 -285 -1 -91 -6 -192 -13 -225
-6 -33 -13 -80 -15 -105 -5 -50 -48 -208 -71 -257 -8 -17 -15 -36 -15 -42 0
-7 -11 -33 -25 -59 -14 -26 -25 -52 -25 -58 0 -6 -9 -19 -19 -28 -11 -10 -22
-28 -25 -42 -4 -13 -11 -24 -16 -24 -5 0 -16 -12 -24 -27 -21 -40 -131 -148
-195 -190 -78 -52 -193 -100 -286 -119 -96 -20 -287 -15 -380 10 -186 51 -374
193 -471 357 -6 11 -17 27 -25 36 -13 17 -40 71 -88 174 -11 25 -21 57 -21 71
0 13 -9 42 -19 64 -10 21 -21 66 -24 99 -3 33 -11 80 -18 105 -20 77 -23 347
-4 453 9 51 19 119 21 152 3 33 14 78 24 100 10 22 20 60 23 84 3 24 9 47 14
50 13 9 33 49 33 65 0 13 44 99 62 121 5 6 23 33 40 60 17 28 71 89 119 136
70 70 104 95 180 132 130 65 217 85 362 86 89 1 139 -4 199 -20z"/>
<path d="M28405 8669 c-137 -10 -373 -38 -411 -48 l-29 -7 -3 -1568 c-1 -1010
1 -1574 8 -1586 6 -11 26 -20 52 -24 116 -18 342 -28 618 -30 295 -1 430 5
535 24 28 5 88 17 135 25 221 41 448 142 556 249 12 12 38 34 58 50 20 16 36
35 36 42 0 7 9 18 20 24 11 6 20 17 20 25 0 8 9 19 19 25 11 5 23 20 27 32 3
13 12 30 19 38 8 8 17 29 21 45 4 17 15 40 25 53 10 13 21 49 25 80 3 31 12
63 18 71 16 21 15 343 -2 363 -7 8 -15 35 -18 59 -3 24 -14 56 -25 71 -10 15
-19 36 -19 46 0 11 -8 30 -19 43 -10 13 -25 38 -34 55 -21 41 -158 174 -225
218 -30 20 -101 54 -158 77 -57 23 -104 45 -104 48 0 4 30 22 68 41 37 19 69
37 72 40 3 3 25 19 50 35 57 39 170 146 170 162 0 6 9 18 19 25 11 8 23 26 26
40 4 15 15 34 26 44 10 9 19 26 19 37 0 11 9 34 19 51 44 71 47 335 6 447 -9
24 -19 55 -22 69 -10 44 -113 188 -166 232 -127 107 -210 155 -349 202 -113
38 -221 60 -370 76 -112 12 -551 11 -713 -1z m749 -464 c88 -25 168 -70 216
-120 14 -14 33 -33 43 -43 9 -9 17 -25 17 -35 0 -10 10 -37 22 -60 18 -36 21
-58 20 -145 -1 -85 -5 -110 -21 -138 -12 -19 -21 -42 -21 -50 0 -25 -67 -100
-132 -149 -42 -31 -89 -54 -156 -77 -97 -31 -98 -31 -348 -36 l-251 -4 -6 31
c-10 50 -8 814 2 830 14 21 133 30 346 26 158 -3 191 -7 269 -30z m-209 -1304
c329 -25 526 -149 595 -371 18 -59 22 -89 18 -168 -2 -54 -9 -106 -15 -117 -6
-11 -16 -40 -23 -64 -15 -55 -68 -132 -125 -179 -27 -23 -158 -90 -205 -106
-125 -40 -192 -48 -419 -44 -178 2 -223 6 -231 17 -10 17 -12 1011 -2 1028 4
6 21 13 37 16 40 5 222 0 370 -12z"/>
<path d="M21746 8634 c-19 -28 -86 -226 -86 -252 0 -10 -6 -26 -13 -37 -8 -11
-17 -36 -21 -55 -3 -19 -15 -57 -25 -85 -10 -27 -31 -90 -46 -140 -15 -49 -36
-111 -46 -137 -10 -26 -19 -56 -19 -67 0 -11 -9 -40 -19 -63 -10 -24 -23 -61
-29 -83 -12 -45 -35 -116 -61 -190 -10 -27 -33 -99 -51 -160 -18 -60 -36 -114
-40 -120 -5 -5 -11 -28 -15 -50 -4 -22 -15 -62 -25 -90 -23 -61 -42 -119 -81
-250 -17 -55 -39 -122 -49 -150 -9 -27 -30 -90 -45 -140 -15 -49 -35 -112 -45
-140 -11 -27 -24 -70 -30 -94 -6 -24 -15 -51 -20 -60 -10 -19 -47 -135 -65
-206 -17 -63 -42 -137 -66 -197 -10 -26 -19 -56 -19 -67 0 -11 -11 -46 -25
-77 -14 -31 -25 -67 -25 -81 0 -13 -7 -37 -15 -54 -21 -40 -38 -130 -26 -142
7 -7 372 -12 532 -8 22 1 32 11 53 51 14 27 26 59 26 70 0 11 7 37 16 58 9 20
22 60 29 87 8 28 21 73 30 100 38 119 54 172 61 205 3 19 15 52 25 72 11 21
19 51 19 68 0 17 8 45 17 63 9 18 18 43 20 57 7 55 14 68 37 74 14 3 199 8
413 11 213 3 408 7 433 9 48 3 157 -19 177 -36 7 -6 13 -26 13 -44 0 -18 9
-48 20 -66 11 -18 20 -44 20 -58 0 -14 9 -44 20 -68 10 -23 22 -59 26 -80 4
-20 15 -55 25 -76 11 -22 19 -51 19 -66 0 -14 9 -43 20 -65 11 -22 20 -48 20
-58 0 -11 11 -45 24 -76 13 -31 28 -74 34 -96 15 -58 37 -114 50 -127 7 -7 99
-11 292 -10 327 0 319 -2 296 77 -42 147 -53 182 -64 202 -7 12 -12 29 -12 37
0 8 -11 40 -25 70 -14 30 -25 66 -25 79 0 13 -7 38 -16 56 -9 18 -22 56 -29
84 -19 72 -44 145 -66 189 -11 20 -19 51 -19 68 0 16 -4 38 -9 48 -19 37 -30
68 -36 102 -4 19 -15 53 -25 75 -10 22 -22 58 -28 80 -11 41 -34 116 -53 170
-6 17 -19 57 -29 90 -28 90 -50 155 -71 207 -10 26 -19 57 -19 70 0 13 -9 40
-20 61 -11 20 -20 46 -20 58 0 11 -9 41 -19 67 -26 63 -50 135 -67 202 -8 30
-19 62 -24 71 -4 9 -14 36 -20 60 -6 24 -19 67 -29 94 -33 90 -52 149 -66 200
-8 28 -21 68 -29 90 -8 22 -15 47 -16 55 0 8 -9 31 -19 51 -11 20 -21 49 -23
65 -2 16 -11 45 -20 64 -9 19 -19 53 -23 74 -3 21 -12 48 -20 60 -7 12 -16 37
-19 56 -4 19 -15 55 -26 80 -10 25 -21 57 -24 71 -4 16 -15 29 -28 33 -13 3
-177 6 -364 6 l-342 0 -16 -26z m379 -544 c14 -27 25 -61 25 -75 0 -14 9 -52
19 -83 11 -32 25 -87 30 -121 6 -35 14 -68 19 -74 6 -7 13 -28 17 -47 9 -46
52 -183 75 -240 11 -25 22 -64 25 -87 4 -22 13 -49 20 -60 8 -10 15 -31 15
-46 0 -15 8 -44 19 -65 10 -20 24 -63 31 -94 6 -32 15 -60 20 -63 4 -3 14 -29
20 -57 7 -29 18 -64 25 -78 7 -14 15 -41 17 -60 l3 -35 -403 -3 -403 -2 7 47
c3 27 11 56 16 67 10 18 28 75 69 221 11 38 24 74 28 80 5 5 11 26 15 45 3 19
13 47 20 62 8 16 18 49 22 75 4 27 14 64 24 83 9 19 20 55 24 80 4 24 10 49
15 55 10 12 28 84 37 143 3 24 12 56 20 70 8 15 14 38 14 52 0 14 9 52 20 85
11 33 25 86 31 118 13 72 30 74 64 7z"/>
<path d="M30622 8643 c-12 -30 -9 -3180 4 -3193 14 -14 1877 -15 1904 0 12 7
21 26 26 56 8 57 0 391 -10 402 -4 4 -311 8 -682 10 l-674 2 0 466 c0 414 2
465 16 471 8 3 276 6 594 7 318 0 581 3 584 6 5 5 18 468 13 472 -1 2 -272 5
-602 8 l-600 5 -3 399 c-1 272 1 403 8 410 8 8 215 13 638 16 l627 5 6 220 c3
121 1 228 -3 238 -8 16 -62 17 -924 17 -862 0 -915 -1 -922 -17z"/>
<path d="M32992 8648 c-6 -9 -11 -442 -13 -1243 -4 -1701 -3 -1926 15 -1951
14 -18 27 -19 252 -16 164 2 242 6 252 14 26 22 1 2121 -28 2248 -12 55 -10
116 7 180 11 44 39 52 53 15 6 -15 19 -39 30 -53 11 -13 20 -35 20 -48 0 -12
4 -26 10 -29 13 -8 80 -148 80 -167 0 -9 7 -21 15 -28 8 -6 17 -22 20 -33 8
-26 67 -146 100 -202 13 -22 31 -53 39 -70 9 -16 20 -37 26 -45 5 -8 17 -31
25 -50 23 -49 51 -99 68 -118 8 -9 18 -27 21 -39 4 -11 13 -27 21 -33 8 -7 15
-20 15 -30 0 -9 9 -25 20 -35 11 -10 20 -25 20 -33 0 -9 8 -25 19 -36 10 -12
35 -52 55 -91 20 -38 43 -76 50 -85 8 -8 17 -25 20 -37 4 -13 11 -23 15 -23 5
0 15 -15 22 -32 12 -29 25 -51 69 -118 14 -20 45 -78 64 -116 8 -17 22 -36 30
-44 9 -7 16 -18 16 -25 0 -6 9 -20 20 -30 11 -10 20 -25 20 -33 0 -8 11 -30
25 -48 14 -18 25 -37 25 -43 0 -5 6 -16 14 -23 7 -8 30 -45 50 -83 20 -38 43
-76 50 -85 8 -8 17 -25 20 -37 4 -13 11 -23 15 -23 5 0 14 -15 21 -32 8 -18
20 -41 28 -51 18 -20 36 -50 57 -94 8 -17 19 -35 25 -38 6 -4 18 -24 27 -46 8
-21 18 -39 22 -39 4 0 15 -17 24 -37 9 -21 27 -50 39 -65 l23 -28 283 -1 c208
-1 287 2 297 11 13 11 15 217 13 1609 l-3 1596 -260 0 -260 0 0 -1008 c0 -762
3 -1010 12 -1015 15 -9 30 -366 16 -375 -18 -12 -33 7 -83 110 -11 23 -25 45
-30 48 -18 11 -49 82 -56 126 -6 37 -49 132 -73 164 -5 5 -14 27 -20 48 -7 20
-16 37 -21 37 -4 0 -13 12 -19 28 -5 15 -16 38 -24 52 -30 55 -47 87 -67 125
-11 22 -31 58 -45 80 -13 22 -31 54 -39 71 -8 17 -22 36 -30 44 -9 7 -16 19
-16 26 0 15 -64 119 -80 129 -5 3 -10 14 -10 24 0 10 -9 26 -20 36 -11 10 -20
24 -20 31 0 7 -11 26 -25 42 -14 17 -25 35 -25 41 0 7 -9 25 -20 41 -11 17
-29 43 -40 60 -11 16 -25 40 -30 52 -6 13 -24 43 -40 68 -17 25 -37 59 -45 77
-8 17 -19 34 -25 38 -6 4 -17 21 -26 38 -23 49 -50 95 -65 113 -16 20 -34 49
-53 90 -8 17 -22 36 -30 44 -9 7 -16 20 -16 29 0 10 -11 28 -25 41 -14 13 -25
31 -25 40 0 9 -9 25 -20 35 -11 10 -20 22 -20 28 0 5 -11 22 -25 39 -14 16
-25 38 -25 48 0 9 -7 23 -16 30 -8 8 -22 27 -30 44 -26 54 -52 97 -68 115 -9
10 -16 23 -16 29 0 6 -10 18 -22 26 -19 14 -68 16 -329 16 -233 0 -309 -3
-317 -12z"/>
<path d="M35833 8653 c-10 -3 -13 -61 -13 -238 0 -219 1 -235 19 -244 12 -7
172 -10 442 -8 233 1 430 -2 437 -6 9 -6 12 -287 12 -1346 0 -1139 2 -1340 14
-1357 14 -18 27 -19 273 -16 220 3 260 6 270 19 9 12 12 322 10 1349 -1 1009
1 1336 10 1345 8 8 126 11 451 10 394 -2 441 0 456 14 24 24 24 445 0 469 -14
14 -135 16 -1192 15 -647 0 -1183 -3 -1189 -6z"/>
<path d="M7646 4974 c-4 -20 -16 -53 -27 -73 -10 -20 -19 -43 -19 -51 0 -9 -9
-33 -19 -54 -11 -21 -23 -52 -27 -69 -4 -18 -15 -48 -25 -67 -11 -19 -19 -42
-19 -50 0 -8 -8 -31 -19 -50 -10 -19 -22 -51 -26 -70 -4 -19 -14 -44 -21 -55
-22 -31 -16 -50 19 -63 53 -19 64 -16 72 24 3 20 15 53 26 73 10 20 19 44 19
54 0 10 8 34 19 55 10 20 22 51 25 69 4 17 16 48 27 69 10 21 19 48 19 59 0
11 6 29 14 40 7 11 21 46 30 77 9 31 21 60 26 63 25 16 2 34 -64 51 -21 5 -24
1 -30 -32z"/>
<path d="M15005 4914 c-22 -8 -44 -19 -49 -24 -5 -5 -11 -124 -12 -272 -2
-145 -6 -300 -9 -345 -7 -91 -8 -90 55 -71 l40 13 0 101 0 102 28 10 c131 50
173 62 210 62 23 0 42 -4 42 -9 0 -6 23 -37 51 -71 54 -65 52 -65 126 -34 l33
14 -32 34 c-18 19 -118 140 -223 270 -104 129 -197 235 -205 235 -8 0 -33 -7
-55 -15z m58 -113 c14 -6 28 -20 32 -31 4 -12 36 -57 71 -100 35 -44 64 -83
64 -88 0 -14 -139 -62 -177 -62 l-33 0 0 93 c0 50 -3 116 -6 145 -7 57 -1 62
49 43z"/>
<path d="M7888 4882 c-10 -21 -21 -53 -24 -72 -4 -19 -15 -51 -26 -70 -10 -19
-18 -43 -18 -54 0 -10 -9 -37 -19 -60 -20 -42 -42 -105 -66 -186 -7 -25 -22
-65 -34 -90 -11 -25 -16 -49 -12 -53 9 -9 356 -127 372 -127 5 0 9 7 9 15 0 9
7 26 15 39 18 27 26 23 -155 81 -63 20 -118 41 -121 47 -4 6 1 30 11 52 21 51
47 125 66 191 8 28 20 64 28 80 8 17 17 46 21 65 4 19 13 45 21 57 7 12 16 39
20 60 5 35 3 40 -21 51 -40 18 -48 15 -67 -26z"/>
<path d="M14550 4770 c-30 -10 -100 -31 -155 -46 -55 -15 -101 -28 -102 -29
-5 -3 26 -143 41 -184 9 -24 16 -54 16 -67 0 -13 8 -45 19 -71 10 -26 22 -70
26 -98 4 -27 13 -61 20 -76 8 -14 17 -48 21 -76 10 -82 7 -81 141 -44 65 17
155 43 200 58 l82 26 -20 39 c-15 29 -25 38 -37 35 -9 -3 -55 -18 -102 -33
-47 -15 -107 -27 -135 -28 l-49 -1 -12 55 c-6 30 -17 67 -24 82 -7 15 -10 33
-7 41 3 7 56 28 120 46 62 18 119 36 126 40 9 6 10 18 3 42 -11 42 -23 42
-142 5 -87 -26 -135 -32 -144 -18 -11 18 -35 157 -28 163 4 4 60 23 125 42 66
20 121 38 124 41 3 2 0 21 -7 40 -13 41 -21 43 -100 16z"/>
<path d="M8365 4740 c-8 -16 -15 -39 -15 -52 -1 -13 -8 -41 -16 -63 -9 -22
-22 -67 -31 -100 -8 -33 -18 -64 -23 -70 -4 -5 -13 -32 -18 -60 -6 -27 -17
-70 -26 -95 -8 -25 -22 -65 -29 -90 -8 -25 -17 -52 -21 -61 -6 -13 16 -22 126
-53 73 -21 153 -45 177 -52 81 -25 101 -17 101 42 0 14 -6 26 -12 28 -7 2 -60
16 -118 32 -58 15 -117 33 -132 40 -26 14 -27 15 -12 49 7 19 14 46 14 60 0
14 7 39 15 56 9 16 21 55 26 87 6 31 17 69 25 83 7 15 17 46 20 70 4 24 15 62
25 84 25 54 24 70 -6 83 -39 18 -53 15 -70 -18z"/>
<path d="M8810 4625 c-5 -14 -14 -55 -20 -92 -6 -36 -17 -77 -24 -92 -8 -14
-17 -50 -21 -80 -4 -30 -14 -69 -21 -87 -22 -53 -18 -155 9 -211 27 -58 46
-77 116 -110 64 -31 170 -42 225 -23 62 20 118 87 148 176 14 44 29 104 33
134 3 30 13 78 20 106 8 28 19 82 24 120 11 75 7 84 -40 84 -23 0 -27 -6 -47
-77 -12 -43 -24 -102 -28 -132 -3 -30 -12 -68 -19 -85 -7 -17 -16 -54 -20 -83
-16 -125 -137 -198 -246 -149 -61 27 -81 50 -89 100 -8 51 10 199 28 232 6 11
14 45 18 75 4 30 15 76 25 102 27 67 25 95 -7 107 -40 15 -54 12 -64 -15z"/>
<path d="M14038 4631 c-31 -9 -59 -19 -63 -22 -7 -7 -45 -393 -45 -460 0 -39
-3 -48 -22 -52 -32 -9 -53 7 -66 51 -7 22 -19 45 -27 52 -8 7 -15 19 -15 28 0
8 -7 23 -16 33 -19 21 -46 68 -70 122 -9 20 -21 37 -25 37 -4 0 -12 15 -19 33
-6 17 -21 44 -33 59 -20 25 -26 27 -57 19 -19 -5 -48 -12 -63 -15 -15 -4 -25
-11 -22 -15 3 -5 10 -69 16 -143 5 -73 16 -167 24 -208 7 -41 17 -126 21 -189
l7 -113 45 6 c25 3 47 7 48 9 1 1 -4 25 -11 53 -7 29 -16 94 -20 145 -4 52
-16 128 -26 171 -20 80 -23 116 -13 142 10 27 39 18 57 -16 9 -18 21 -40 27
-48 5 -8 16 -31 25 -50 15 -35 24 -52 56 -100 9 -14 20 -37 24 -50 4 -14 14
-33 22 -42 16 -18 42 -63 67 -117 15 -31 19 -33 52 -28 20 4 39 9 42 12 3 3
11 66 18 141 7 74 18 168 23 207 6 40 14 97 17 128 6 64 26 101 44 83 6 -6 20
-45 31 -85 11 -41 29 -105 40 -144 83 -287 78 -275 110 -275 14 0 33 6 42 13
19 13 14 40 -22 142 -31 84 -52 148 -66 200 -14 53 -39 130 -57 180 -5 17 -16
49 -22 72 -6 23 -14 44 -16 46 -3 2 -31 -4 -62 -12z"/>
<path d="M9495 4453 c-4 -26 -13 -59 -20 -73 -7 -14 -16 -48 -20 -75 -4 -28
-16 -72 -26 -98 -11 -26 -19 -60 -19 -75 -1 -15 -8 -45 -16 -67 -9 -22 -22
-71 -30 -109 -8 -38 -19 -75 -25 -82 -13 -16 18 -34 60 -34 28 0 31 3 31 30 0
17 9 56 19 88 10 31 22 77 26 102 4 25 15 74 26 109 10 35 19 75 19 91 0 40
20 90 36 90 23 0 31 -30 53 -190 11 -85 26 -184 32 -220 6 -36 13 -80 16 -98
5 -30 31 -52 62 -52 10 0 58 73 66 102 4 13 13 30 20 38 7 8 20 31 29 50 9 19
32 64 51 98 19 35 35 69 35 76 0 6 8 23 18 36 9 14 22 38 27 55 8 23 16 30 35
30 l25 0 -2 -105 c-2 -58 -10 -163 -18 -235 -9 -71 -17 -142 -19 -158 -3 -31
18 -41 70 -35 l28 3 3 90 c3 76 22 465 26 544 2 28 -21 38 -90 40 -36 1 -43
-2 -43 -18 0 -11 -5 -23 -11 -27 -6 -3 -19 -25 -30 -48 -10 -22 -43 -87 -73
-143 -30 -55 -59 -116 -65 -135 -11 -33 -55 -88 -70 -88 -20 0 -29 31 -36 115
-4 50 -13 115 -20 145 -7 30 -16 82 -19 115 -17 153 -11 141 -74 154 -79 16
-79 16 -87 -36z"/>
<path d="M12764 4400 c-103 -41 -166 -121 -188 -239 -21 -109 -2 -229 48 -299
40 -57 104 -108 154 -122 135 -37 301 22 373 134 57 88 58 287 2 386 -29 51
-92 114 -138 138 -49 25 -189 27 -251 2z m161 -71 c51 -13 131 -83 145 -126 5
-15 16 -46 24 -68 21 -57 19 -118 -6 -178 -26 -63 -51 -93 -100 -118 -46 -23
-134 -25 -186 -3 -39 16 -102 70 -102 88 -1 6 -9 29 -20 51 -30 61 -27 179 4
242 32 62 69 93 135 114 37 11 57 10 106 -2z"/>
<path d="M10296 4283 c-4 -54 -13 -147 -22 -208 -20 -143 -36 -335 -30 -352 3
-8 21 -13 45 -13 l39 0 6 48 c3 26 10 112 16 192 7 80 20 206 30 280 10 74 16
138 13 143 -2 4 -24 7 -48 7 l-43 0 -6 -97z"/>
<path d="M10556 4283 c-3 -43 -13 -139 -21 -213 -9 -74 -19 -188 -23 -254 -8
-128 -7 -130 43 -124 25 3 28 7 31 53 3 28 11 115 19 194 8 79 15 165 15 190
0 47 13 71 37 71 8 0 16 -8 19 -17 6 -16 33 -78 63 -143 21 -43 42 -84 52
-100 5 -8 18 -33 29 -55 11 -22 31 -58 45 -80 13 -22 32 -56 41 -75 28 -60 42
-70 98 -70 l51 0 3 203 c1 111 5 262 8 335 l6 132 -39 0 -40 0 -4 -157 c-2
-87 -2 -187 -1 -223 3 -84 -3 -110 -27 -110 -26 0 -67 51 -75 93 -4 19 -13 40
-21 47 -7 6 -17 25 -20 41 -4 16 -11 32 -17 35 -5 3 -18 25 -29 48 -10 22 -24
50 -31 61 -49 79 -58 96 -58 105 0 6 -10 25 -22 43 -13 18 -23 33 -23 33 0 1
-23 5 -52 9 l-51 7 -6 -79z"/>
<path d="M12323 4344 c-7 -19 4 -211 19 -314 6 -41 13 -133 17 -205 l6 -130
29 -3 c15 -2 38 -1 51 2 22 6 22 6 9 83 -7 43 -17 157 -23 253 -6 96 -16 210
-22 253 l-13 77 -33 0 c-21 0 -36 -6 -40 -16z"/>
<path d="M12080 4339 c-47 -4 -138 -7 -202 -8 -64 -1 -123 -4 -132 -7 -11 -4
-16 -19 -16 -45 l0 -39 95 0 c68 0 97 -4 99 -12 2 -7 9 -105 15 -218 7 -113
15 -238 18 -277 l6 -73 34 0 c21 0 36 6 39 15 4 8 2 135 -4 283 -5 147 -6 271
-1 276 4 5 49 13 99 19 71 8 90 14 85 25 -3 7 -5 27 -5 43 0 24 -4 29 -22 27
-13 0 -61 -4 -108 -9z"/>
<path d="M11395 4288 c-4 -18 -15 -55 -25 -83 -29 -82 -42 -118 -57 -165 -8
-25 -20 -58 -28 -75 -12 -28 -19 -48 -60 -170 -9 -27 -26 -67 -37 -89 -17 -32
-18 -40 -7 -47 8 -5 23 -7 34 -4 11 2 30 5 41 5 16 0 23 8 28 31 3 18 16 58
29 89 21 56 23 58 66 64 56 8 126 8 184 0 40 -6 47 -10 52 -34 3 -16 15 -45
26 -66 10 -21 19 -48 19 -60 0 -18 7 -22 41 -27 72 -10 82 3 50 63 -10 19 -21
49 -25 67 -4 17 -16 48 -27 69 -10 21 -19 48 -19 59 0 11 -7 31 -16 43 -8 12
-21 43 -29 69 -16 59 -42 133 -66 193 -10 25 -20 56 -21 70 -3 24 -7 25 -75
28 l-71 3 -7 -33z m109 -100 c7 -13 17 -45 21 -73 4 -27 15 -66 26 -87 27 -52
25 -94 -3 -102 -35 -9 -134 -7 -161 3 -24 9 -25 12 -16 51 5 23 16 55 24 71 9
16 18 50 22 76 3 27 10 56 15 66 13 24 55 22 72 -5z"/>
<path d="M12495 3305 c-16 -6 -210 -24 -500 -45 -392 -29 -814 -24 -1352 16
-91 7 -115 0 -74 -21 11 -6 82 -48 157 -94 155 -94 381 -214 494 -262 41 -17
93 -39 115 -49 141 -63 209 -83 230 -70 6 4 46 22 90 40 44 18 104 43 133 56
29 13 55 24 59 24 10 0 298 147 342 174 22 14 43 26 46 26 2 0 68 39 145 88
78 48 150 91 161 97 10 5 19 13 19 17 0 8 -46 10 -65 3z"/>
</g>
</svg>
